<?xml version="1.0" encoding="UTF-8"?>
<svg width="142px" height="142px" viewBox="0 0 142 142" version="1.1" xmlns="http://www.w3.org/2000/svg" xmlns:xlink="http://www.w3.org/1999/xlink">
    <!-- Generator: Sketch 49.1 (51147) - http://www.bohemiancoding.com/sketch -->
    <title>icon-button</title>
    <desc>Created with Sketch.</desc>
    <defs>
        <filter x="-8.2%" y="-8.2%" width="116.4%" height="116.4%" filterUnits="objectBoundingBox" id="filter-1">
            <feOffset dx="0" dy="0" in="SourceAlpha" result="shadowOffsetOuter1"></feOffset>
            <feGaussianBlur stdDeviation="3.5" in="shadowOffsetOuter1" result="shadowBlurOuter1"></feGaussianBlur>
            <feColorMatrix values="0 0 0 0 0   0 0 0 0 0   0 0 0 0 0  0 0 0 0.15 0" type="matrix" in="shadowBlurOuter1" result="shadowMatrixOuter1"></feColorMatrix>
            <feMerge>
                <feMergeNode in="shadowMatrixOuter1"></feMergeNode>
                <feMergeNode in="SourceGraphic"></feMergeNode>
            </feMerge>
        </filter>
        <circle id="path-2" cx="64" cy="64" r="64"></circle>
    </defs>
    <g id="Web" stroke="none" stroke-width="1" fill="none" fill-rule="evenodd">
        <g id="01-Landing-Page" transform="translate(-649.000000, -1013.000000)">
            <g id="icon-button" filter="url(#filter-1)" transform="translate(656.000000, 1020.000000)">
                <mask id="mask-3" fill="white">
                    <use xlink:href="#path-2"></use>
                </mask>
                <use id="Mask" fill="#FFFFFF" xlink:href="#path-2"></use>
                <rect id="Rectangle-2" fill="#4EA1D3" mask="url(#mask-3)" x="0" y="90.6666667" width="128" height="37.3333333"></rect>
                <rect id="Rectangle-2" fill="#EC4964" mask="url(#mask-3)" x="0" y="0" width="128" height="37.3333333"></rect>
                <path d="M14.552,58.5386667 L16.8293333,58.5386667 L18.584,65.2773333 L20.1706667,58.5386667 L23.1946667,58.5386667 L20.1706667,70 L17.4266667,70 L15.6533333,63.28 L13.8613333,70 L11.1173333,70 L8.112,58.5386667 L11.1733333,58.5386667 L12.7786667,65.2773333 L14.552,58.5386667 Z M24.4986667,58.5386667 L32.6933333,58.5386667 L32.6933333,61.1146667 L27.448,61.1146667 L27.448,62.9066667 L32.2453333,62.9066667 L32.2453333,65.4266667 L27.448,65.4266667 L27.448,67.4053333 L32.6933333,67.4053333 L32.6933333,70 L24.4986667,70 L24.4986667,58.5386667 Z M48.704,58.5386667 L48.704,70 L46.2773333,70 L41.48,63.2986667 L41.48,70 L38.5866667,70 L38.5866667,58.5386667 L41.3866667,58.5386667 L45.8106667,64.848 L45.8106667,58.5386667 L48.704,58.5386667 Z M50.7546667,58.5386667 L58.9493333,58.5386667 L58.9493333,61.1146667 L53.704,61.1146667 L53.704,62.9066667 L58.5013333,62.9066667 L58.5013333,65.4266667 L53.704,65.4266667 L53.704,67.4053333 L58.9493333,67.4053333 L58.9493333,70 L50.7546667,70 L50.7546667,58.5386667 Z M60.776,58.5386667 L68.9706667,58.5386667 L68.9706667,61.1146667 L63.7253333,61.1146667 L63.7253333,62.9066667 L68.5226667,62.9066667 L68.5226667,65.4266667 L63.7253333,65.4266667 L63.7253333,67.4053333 L68.9706667,67.4053333 L68.9706667,70 L60.776,70 L60.776,58.5386667 Z M73.7466667,67.4053333 L74.9786667,67.4053333 C76.8826667,67.4053333 77.9466667,66.192 77.9466667,64.2693333 C77.9466667,62.328 76.8826667,61.1146667 74.9786667,61.1146667 L73.7466667,61.1146667 L73.7466667,67.4053333 Z M70.7973333,70 L70.7973333,58.5386667 L75.128,58.5386667 C78.7306667,58.5386667 80.9146667,60.7786667 80.9146667,64.2693333 C80.9146667,67.76 78.7306667,70 75.128,70 L70.7973333,70 Z M91.4746667,63.0186667 L93.8826667,58.5386667 L97.0373333,58.5386667 L92.8933333,65.9306667 L92.8933333,70 L89.888,70 L89.888,65.9306667 L85.8186667,58.5386667 L89.0666667,58.5386667 L91.4746667,63.0186667 Z M108.16,64.2693333 C108.16,67.6853333 105.864,70.1866667 102.541333,70.1866667 C99.2373333,70.1866667 96.96,67.6853333 96.96,64.2693333 C96.96,60.8346667 99.2373333,58.352 102.541333,58.352 C105.864,58.352 108.16,60.8346667 108.16,64.2693333 Z M105.136,64.2693333 C105.136,62.2906667 104.090667,60.984 102.541333,60.984 C100.992,60.984 99.984,62.2906667 99.984,64.2693333 C99.984,66.248 100.992,67.5546667 102.541333,67.5546667 C104.090667,67.5546667 105.136,66.248 105.136,64.2693333 Z M114.616,70.1866667 C111.592,70.1866667 109.613333,68.4693333 109.613333,65.3146667 L109.613333,58.5386667 L112.6,58.5386667 L112.6,65.0533333 C112.6,66.6773333 113.365333,67.5173333 114.616,67.5173333 C115.848,67.5173333 116.613333,66.6773333 116.613333,65.0533333 L116.613333,58.5386667 L119.6,58.5386667 L119.6,65.3333333 C119.6,68.4693333 117.64,70.1866667 114.616,70.1866667 Z" id="WE-NEED-YOU" fill="#333333" mask="url(#mask-3)"></path>
                <g id="star-solid" mask="url(#mask-3)" fill-rule="nonzero">
                    <g transform="translate(58.666667, 13.333333)">
                        <path d="M10.0740741,4.97185185 C10.2998531,4.80365508 10.3935527,4.51041584 10.3071379,4.24246286 C10.220723,3.97450988 9.97335707,3.79126427 9.69185185,3.78666667 L7.02518519,3.68592593 C6.99840208,3.68407695 6.97520021,3.66667554 6.96592593,3.64148148 L6.04444444,1.15259259 C5.94960603,0.893212346 5.70284132,0.720695806 5.42666667,0.720695806 C5.15049202,0.720695806 4.90372731,0.893212346 4.80888889,1.15259259 L3.89037037,3.65037037 C3.88109608,3.67556443 3.85789421,3.69296584 3.83111111,3.69481481 L1.16444444,3.79555556 C0.882939231,3.80015315 0.635573275,3.98339877 0.549158439,4.25135174 C0.462743603,4.51930472 0.556443192,4.81254397 0.782222222,4.98074074 L2.87407407,6.62518519 C2.89547257,6.64202456 2.90479295,6.6699857 2.89777778,6.6962963 L2.17777778,9.24740741 C2.10134194,9.51354617 2.19976013,9.79905586 2.42395507,9.96156402 C2.64815001,10.1240722 2.95010992,10.1287774 3.17925926,9.97333333 L5.38962963,8.49185185 C5.4119222,8.47645972 5.44141114,8.47645972 5.4637037,8.49185185 L7.67407407,9.97333333 C7.90024589,10.1341757 8.20345782,10.1341757 8.42962963,9.97333333 C8.65394572,9.81230945 8.75246947,9.52742149 8.67555556,9.26222222 L7.94962963,6.70222222 C7.9417492,6.67589171 7.95123068,6.64744726 7.97333333,6.63111111 L10.0740741,4.97185185 Z" id="Shape" fill="#FFFFFF"></path>
                        <rect id="Rectangle-path" fill-opacity="0" fill="#000000" x="0" y="0" width="10.6666667" height="10.6666667"></rect>
                    </g>
                </g>
                <g id="star-solid" mask="url(#mask-3)" fill-rule="nonzero">
                    <g transform="translate(42.666667, 13.333333)">
                        <path d="M10.0740741,4.97185185 C10.2998531,4.80365508 10.3935527,4.51041584 10.3071379,4.24246286 C10.220723,3.97450988 9.97335707,3.79126427 9.69185185,3.78666667 L7.02518519,3.68592593 C6.99840208,3.68407695 6.97520021,3.66667554 6.96592593,3.64148148 L6.04444444,1.15259259 C5.94960603,0.893212346 5.70284132,0.720695806 5.42666667,0.720695806 C5.15049202,0.720695806 4.90372731,0.893212346 4.80888889,1.15259259 L3.89037037,3.65037037 C3.88109608,3.67556443 3.85789421,3.69296584 3.83111111,3.69481481 L1.16444444,3.79555556 C0.882939231,3.80015315 0.635573275,3.98339877 0.549158439,4.25135174 C0.462743603,4.51930472 0.556443192,4.81254397 0.782222222,4.98074074 L2.87407407,6.62518519 C2.89547257,6.64202456 2.90479295,6.6699857 2.89777778,6.6962963 L2.17777778,9.24740741 C2.10134194,9.51354617 2.19976013,9.79905586 2.42395507,9.96156402 C2.64815001,10.1240722 2.95010992,10.1287774 3.17925926,9.97333333 L5.38962963,8.49185185 C5.4119222,8.47645972 5.44141114,8.47645972 5.4637037,8.49185185 L7.67407407,9.97333333 C7.90024589,10.1341757 8.20345782,10.1341757 8.42962963,9.97333333 C8.65394572,9.81230945 8.75246947,9.52742149 8.67555556,9.26222222 L7.94962963,6.70222222 C7.9417492,6.67589171 7.95123068,6.64744726 7.97333333,6.63111111 L10.0740741,4.97185185 Z" id="Shape" fill="#FFFFFF"></path>
                        <rect id="Rectangle-path" fill-opacity="0" fill="#000000" x="0" y="0" width="10.6666667" height="10.6666667"></rect>
                    </g>
                </g>
                <g id="star-solid" mask="url(#mask-3)" fill-rule="nonzero">
                    <g transform="translate(74.666667, 13.333333)">
                        <path d="M10.0740741,4.97185185 C10.2998531,4.80365508 10.3935527,4.51041584 10.3071379,4.24246286 C10.220723,3.97450988 9.97335707,3.79126427 9.69185185,3.78666667 L7.02518519,3.68592593 C6.99840208,3.68407695 6.97520021,3.66667554 6.96592593,3.64148148 L6.04444444,1.15259259 C5.94960603,0.893212346 5.70284132,0.720695806 5.42666667,0.720695806 C5.15049202,0.720695806 4.90372731,0.893212346 4.80888889,1.15259259 L3.89037037,3.65037037 C3.88109608,3.67556443 3.85789421,3.69296584 3.83111111,3.69481481 L1.16444444,3.79555556 C0.882939231,3.80015315 0.635573275,3.98339877 0.549158439,4.25135174 C0.462743603,4.51930472 0.556443192,4.81254397 0.782222222,4.98074074 L2.87407407,6.62518519 C2.89547257,6.64202456 2.90479295,6.6699857 2.89777778,6.6962963 L2.17777778,9.24740741 C2.10134194,9.51354617 2.19976013,9.79905586 2.42395507,9.96156402 C2.64815001,10.1240722 2.95010992,10.1287774 3.17925926,9.97333333 L5.38962963,8.49185185 C5.4119222,8.47645972 5.44141114,8.47645972 5.4637037,8.49185185 L7.67407407,9.97333333 C7.90024589,10.1341757 8.20345782,10.1341757 8.42962963,9.97333333 C8.65394572,9.81230945 8.75246947,9.52742149 8.67555556,9.26222222 L7.94962963,6.70222222 C7.9417492,6.67589171 7.95123068,6.64744726 7.97333333,6.63111111 L10.0740741,4.97185185 Z" id="Shape" fill="#FFFFFF"></path>
                        <rect id="Rectangle-path" fill-opacity="0" fill="#000000" x="0" y="0" width="10.6666667" height="10.6666667"></rect>
                    </g>
                </g>
                <g id="star-solid" mask="url(#mask-3)" fill-rule="nonzero">
                    <g transform="translate(58.666667, 104.000000)">
                        <path d="M10.0740741,4.97185185 C10.2998531,4.80365508 10.3935527,4.51041584 10.3071379,4.24246286 C10.220723,3.97450988 9.97335707,3.79126427 9.69185185,3.78666667 L7.02518519,3.68592593 C6.99840208,3.68407695 6.97520021,3.66667554 6.96592593,3.64148148 L6.04444444,1.15259259 C5.94960603,0.893212346 5.70284132,0.720695806 5.42666667,0.720695806 C5.15049202,0.720695806 4.90372731,0.893212346 4.80888889,1.15259259 L3.89037037,3.65037037 C3.88109608,3.67556443 3.85789421,3.69296584 3.83111111,3.69481481 L1.16444444,3.79555556 C0.882939231,3.80015315 0.635573275,3.98339877 0.549158439,4.25135174 C0.462743603,4.51930472 0.556443192,4.81254397 0.782222222,4.98074074 L2.87407407,6.62518519 C2.89547257,6.64202456 2.90479295,6.6699857 2.89777778,6.6962963 L2.17777778,9.24740741 C2.10134194,9.51354617 2.19976013,9.79905586 2.42395507,9.96156402 C2.64815001,10.1240722 2.95010992,10.1287774 3.17925926,9.97333333 L5.38962963,8.49185185 C5.4119222,8.47645972 5.44141114,8.47645972 5.4637037,8.49185185 L7.67407407,9.97333333 C7.90024589,10.1341757 8.20345782,10.1341757 8.42962963,9.97333333 C8.65394572,9.81230945 8.75246947,9.52742149 8.67555556,9.26222222 L7.94962963,6.70222222 C7.9417492,6.67589171 7.95123068,6.64744726 7.97333333,6.63111111 L10.0740741,4.97185185 Z" id="Shape" fill="#FFFFFF"></path>
                        <rect id="Rectangle-path" fill-opacity="0" fill="#000000" x="0" y="0" width="10.6666667" height="10.6666667"></rect>
                    </g>
                </g>
                <g id="star-solid" mask="url(#mask-3)" fill-rule="nonzero">
                    <g transform="translate(42.666667, 104.000000)">
                        <path d="M10.0740741,4.97185185 C10.2998531,4.80365508 10.3935527,4.51041584 10.3071379,4.24246286 C10.220723,3.97450988 9.97335707,3.79126427 9.69185185,3.78666667 L7.02518519,3.68592593 C6.99840208,3.68407695 6.97520021,3.66667554 6.96592593,3.64148148 L6.04444444,1.15259259 C5.94960603,0.893212346 5.70284132,0.720695806 5.42666667,0.720695806 C5.15049202,0.720695806 4.90372731,0.893212346 4.80888889,1.15259259 L3.89037037,3.65037037 C3.88109608,3.67556443 3.85789421,3.69296584 3.83111111,3.69481481 L1.16444444,3.79555556 C0.882939231,3.80015315 0.635573275,3.98339877 0.549158439,4.25135174 C0.462743603,4.51930472 0.556443192,4.81254397 0.782222222,4.98074074 L2.87407407,6.62518519 C2.89547257,6.64202456 2.90479295,6.6699857 2.89777778,6.6962963 L2.17777778,9.24740741 C2.10134194,9.51354617 2.19976013,9.79905586 2.42395507,9.96156402 C2.64815001,10.1240722 2.95010992,10.1287774 3.17925926,9.97333333 L5.38962963,8.49185185 C5.4119222,8.47645972 5.44141114,8.47645972 5.4637037,8.49185185 L7.67407407,9.97333333 C7.90024589,10.1341757 8.20345782,10.1341757 8.42962963,9.97333333 C8.65394572,9.81230945 8.75246947,9.52742149 8.67555556,9.26222222 L7.94962963,6.70222222 C7.9417492,6.67589171 7.95123068,6.64744726 7.97333333,6.63111111 L10.0740741,4.97185185 Z" id="Shape" fill="#FFFFFF"></path>
                        <rect id="Rectangle-path" fill-opacity="0" fill="#000000" x="0" y="0" width="10.6666667" height="10.6666667"></rect>
                    </g>
                </g>
                <g id="star-solid" mask="url(#mask-3)" fill-rule="nonzero">
                    <g transform="translate(74.666667, 104.000000)">
                        <path d="M10.0740741,4.97185185 C10.2998531,4.80365508 10.3935527,4.51041584 10.3071379,4.24246286 C10.220723,3.97450988 9.97335707,3.79126427 9.69185185,3.78666667 L7.02518519,3.68592593 C6.99840208,3.68407695 6.97520021,3.66667554 6.96592593,3.64148148 L6.04444444,1.15259259 C5.94960603,0.893212346 5.70284132,0.720695806 5.42666667,0.720695806 C5.15049202,0.720695806 4.90372731,0.893212346 4.80888889,1.15259259 L3.89037037,3.65037037 C3.88109608,3.67556443 3.85789421,3.69296584 3.83111111,3.69481481 L1.16444444,3.79555556 C0.882939231,3.80015315 0.635573275,3.98339877 0.549158439,4.25135174 C0.462743603,4.51930472 0.556443192,4.81254397 0.782222222,4.98074074 L2.87407407,6.62518519 C2.89547257,6.64202456 2.90479295,6.6699857 2.89777778,6.6962963 L2.17777778,9.24740741 C2.10134194,9.51354617 2.19976013,9.79905586 2.42395507,9.96156402 C2.64815001,10.1240722 2.95010992,10.1287774 3.17925926,9.97333333 L5.38962963,8.49185185 C5.4119222,8.47645972 5.44141114,8.47645972 5.4637037,8.49185185 L7.67407407,9.97333333 C7.90024589,10.1341757 8.20345782,10.1341757 8.42962963,9.97333333 C8.65394572,9.81230945 8.75246947,9.52742149 8.67555556,9.26222222 L7.94962963,6.70222222 C7.9417492,6.67589171 7.95123068,6.64744726 7.97333333,6.63111111 L10.0740741,4.97185185 Z" id="Shape" fill="#FFFFFF"></path>
                        <rect id="Rectangle-path" fill-opacity="0" fill="#000000" x="0" y="0" width="10.6666667" height="10.6666667"></rect>
                    </g>
                </g>
            </g>
        </g>
    </g>
</svg>