<?xml version="1.0" encoding="UTF-8"?>
<svg width="33px" height="22px" viewBox="0 0 33 22" version="1.1" xmlns="http://www.w3.org/2000/svg" xmlns:xlink="http://www.w3.org/1999/xlink">
    <!-- Generator: Sketch 49.1 (51147) - http://www.bohemiancoding.com/sketch -->
    <title>icon-flag</title>
    <desc>Created with Sketch.</desc>
    <defs></defs>
    <g id="Web" stroke="none" stroke-width="1" fill="none" fill-rule="evenodd">
        <g id="01-Landing-Page" transform="translate(-670.000000, -247.000000)">
            <g id="hero" transform="translate(336.000000, 244.000000)">
                <g id="icon-flag" transform="translate(334.951907, 3.330103)">
                    <rect id="Rectangle-3" fill="#FFFFFF" x="0" y="0" width="32" height="21"></rect>
                    <rect id="Rectangle-3" fill="#4EA1D3" x="0" y="0" width="12.8" height="9.69230769"></rect>
                    <g id="star-solid" transform="translate(0.842799, 1.017064)" fill-rule="nonzero">
                        <path d="M3.02222222,1.50589744 C3.08995593,1.45495322 3.11806581,1.36613557 3.09214136,1.28497673 C3.06621691,1.2038179 2.99200712,1.14831562 2.90755556,1.14692308 L2.10755556,1.11641026 C2.09952063,1.11585023 2.09256006,1.11057961 2.08977778,1.10294872 L1.81333333,0.349102564 C1.78488181,0.270540278 1.7108524,0.218287672 1.628,0.218287672 C1.5451476,0.218287672 1.47111819,0.270540278 1.44266667,0.349102564 L1.16711111,1.10564103 C1.16432882,1.11327192 1.15736826,1.11854254 1.14933333,1.11910256 L0.349333333,1.14961538 C0.264881769,1.15100793 0.190671983,1.2065102 0.164747532,1.28766904 C0.138823081,1.36882787 0.166932957,1.45764553 0.234666667,1.50858974 L0.862222222,2.00666667 C0.868641771,2.01176705 0.871437885,2.02023605 0.869333333,2.02820513 L0.653333333,2.80089744 C0.630402581,2.88150677 0.659928038,2.96798326 0.727186521,3.01720449 C0.794445004,3.06642571 0.885032975,3.06785085 0.953777778,3.02076923 L1.61688889,2.57205128 C1.62357666,2.56738924 1.63242334,2.56738924 1.63911111,2.57205128 L2.30222222,3.02076923 C2.37007377,3.0694859 2.46103734,3.0694859 2.52888889,3.02076923 C2.59618372,2.97199757 2.62574084,2.88570939 2.60266667,2.80538462 L2.38488889,2.03 C2.38252476,2.02202489 2.38536921,2.01340951 2.392,2.00846154 L3.02222222,1.50589744 Z" id="Shape" fill="#FFFFFF"></path>
                        <rect id="Rectangle-path" fill-opacity="0" fill="#000000" x="0" y="0" width="3.2" height="3.23076923"></rect>
                    </g>
                    <g id="star-solid" transform="translate(4.844834, 1.017339)" fill-rule="nonzero">
                        <path d="M3.02222222,1.50589744 C3.08995593,1.45495322 3.11806581,1.36613557 3.09214136,1.28497673 C3.06621691,1.2038179 2.99200712,1.14831562 2.90755556,1.14692308 L2.10755556,1.11641026 C2.09952063,1.11585023 2.09256006,1.11057961 2.08977778,1.10294872 L1.81333333,0.349102564 C1.78488181,0.270540278 1.7108524,0.218287672 1.628,0.218287672 C1.5451476,0.218287672 1.47111819,0.270540278 1.44266667,0.349102564 L1.16711111,1.10564103 C1.16432882,1.11327192 1.15736826,1.11854254 1.14933333,1.11910256 L0.349333333,1.14961538 C0.264881769,1.15100793 0.190671983,1.2065102 0.164747532,1.28766904 C0.138823081,1.36882787 0.166932957,1.45764553 0.234666667,1.50858974 L0.862222222,2.00666667 C0.868641771,2.01176705 0.871437885,2.02023605 0.869333333,2.02820513 L0.653333333,2.80089744 C0.630402581,2.88150677 0.659928038,2.96798326 0.727186521,3.01720449 C0.794445004,3.06642571 0.885032975,3.06785085 0.953777778,3.02076923 L1.61688889,2.57205128 C1.62357666,2.56738924 1.63242334,2.56738924 1.63911111,2.57205128 L2.30222222,3.02076923 C2.37007377,3.0694859 2.46103734,3.0694859 2.52888889,3.02076923 C2.59618372,2.97199757 2.62574084,2.88570939 2.60266667,2.80538462 L2.38488889,2.03 C2.38252476,2.02202489 2.38536921,2.01340951 2.392,2.00846154 L3.02222222,1.50589744 Z" id="Shape" fill="#FFFFFF"></path>
                        <rect id="Rectangle-path" fill-opacity="0" fill="#000000" x="0" y="0" width="3.2" height="3.23076923"></rect>
                    </g>
                    <g id="star-solid" transform="translate(8.844880, 1.017140)" fill-rule="nonzero">
                        <path d="M3.02222222,1.50589744 C3.08995593,1.45495322 3.11806581,1.36613557 3.09214136,1.28497673 C3.06621691,1.2038179 2.99200712,1.14831562 2.90755556,1.14692308 L2.10755556,1.11641026 C2.09952063,1.11585023 2.09256006,1.11057961 2.08977778,1.10294872 L1.81333333,0.349102564 C1.78488181,0.270540278 1.7108524,0.218287672 1.628,0.218287672 C1.5451476,0.218287672 1.47111819,0.270540278 1.44266667,0.349102564 L1.16711111,1.10564103 C1.16432882,1.11327192 1.15736826,1.11854254 1.14933333,1.11910256 L0.349333333,1.14961538 C0.264881769,1.15100793 0.190671983,1.2065102 0.164747532,1.28766904 C0.138823081,1.36882787 0.166932957,1.45764553 0.234666667,1.50858974 L0.862222222,2.00666667 C0.868641771,2.01176705 0.871437885,2.02023605 0.869333333,2.02820513 L0.653333333,2.80089744 C0.630402581,2.88150677 0.659928038,2.96798326 0.727186521,3.01720449 C0.794445004,3.06642571 0.885032975,3.06785085 0.953777778,3.02076923 L1.61688889,2.57205128 C1.62357666,2.56738924 1.63242334,2.56738924 1.63911111,2.57205128 L2.30222222,3.02076923 C2.37007377,3.0694859 2.46103734,3.0694859 2.52888889,3.02076923 C2.59618372,2.97199757 2.62574084,2.88570939 2.60266667,2.80538462 L2.38488889,2.03 C2.38252476,2.02202489 2.38536921,2.01340951 2.392,2.00846154 L3.02222222,1.50589744 Z" id="Shape" fill="#FFFFFF"></path>
                        <rect id="Rectangle-path" fill-opacity="0" fill="#000000" x="0" y="0" width="3.2" height="3.23076923"></rect>
                    </g>
                    <g id="star-solid" transform="translate(0.800000, 5.250000)" fill-rule="nonzero">
                        <path d="M3.02222222,1.50589744 C3.08995593,1.45495322 3.11806581,1.36613557 3.09214136,1.28497673 C3.06621691,1.2038179 2.99200712,1.14831562 2.90755556,1.14692308 L2.10755556,1.11641026 C2.09952063,1.11585023 2.09256006,1.11057961 2.08977778,1.10294872 L1.81333333,0.349102564 C1.78488181,0.270540278 1.7108524,0.218287672 1.628,0.218287672 C1.5451476,0.218287672 1.47111819,0.270540278 1.44266667,0.349102564 L1.16711111,1.10564103 C1.16432882,1.11327192 1.15736826,1.11854254 1.14933333,1.11910256 L0.349333333,1.14961538 C0.264881769,1.15100793 0.190671983,1.2065102 0.164747532,1.28766904 C0.138823081,1.36882787 0.166932957,1.45764553 0.234666667,1.50858974 L0.862222222,2.00666667 C0.868641771,2.01176705 0.871437885,2.02023605 0.869333333,2.02820513 L0.653333333,2.80089744 C0.630402581,2.88150677 0.659928038,2.96798326 0.727186521,3.01720449 C0.794445004,3.06642571 0.885032975,3.06785085 0.953777778,3.02076923 L1.61688889,2.57205128 C1.62357666,2.56738924 1.63242334,2.56738924 1.63911111,2.57205128 L2.30222222,3.02076923 C2.37007377,3.0694859 2.46103734,3.0694859 2.52888889,3.02076923 C2.59618372,2.97199757 2.62574084,2.88570939 2.60266667,2.80538462 L2.38488889,2.03 C2.38252476,2.02202489 2.38536921,2.01340951 2.392,2.00846154 L3.02222222,1.50589744 Z" id="Shape" fill="#FFFFFF"></path>
                        <rect id="Rectangle-path" fill-opacity="0" fill="#000000" x="0" y="0" width="3.2" height="3.23076923"></rect>
                    </g>
                    <g id="star-solid" transform="translate(4.800000, 5.250000)" fill-rule="nonzero">
                        <path d="M3.02222222,1.50589744 C3.08995593,1.45495322 3.11806581,1.36613557 3.09214136,1.28497673 C3.06621691,1.2038179 2.99200712,1.14831562 2.90755556,1.14692308 L2.10755556,1.11641026 C2.09952063,1.11585023 2.09256006,1.11057961 2.08977778,1.10294872 L1.81333333,0.349102564 C1.78488181,0.270540278 1.7108524,0.218287672 1.628,0.218287672 C1.5451476,0.218287672 1.47111819,0.270540278 1.44266667,0.349102564 L1.16711111,1.10564103 C1.16432882,1.11327192 1.15736826,1.11854254 1.14933333,1.11910256 L0.349333333,1.14961538 C0.264881769,1.15100793 0.190671983,1.2065102 0.164747532,1.28766904 C0.138823081,1.36882787 0.166932957,1.45764553 0.234666667,1.50858974 L0.862222222,2.00666667 C0.868641771,2.01176705 0.871437885,2.02023605 0.869333333,2.02820513 L0.653333333,2.80089744 C0.630402581,2.88150677 0.659928038,2.96798326 0.727186521,3.01720449 C0.794445004,3.06642571 0.885032975,3.06785085 0.953777778,3.02076923 L1.61688889,2.57205128 C1.62357666,2.56738924 1.63242334,2.56738924 1.63911111,2.57205128 L2.30222222,3.02076923 C2.37007377,3.0694859 2.46103734,3.0694859 2.52888889,3.02076923 C2.59618372,2.97199757 2.62574084,2.88570939 2.60266667,2.80538462 L2.38488889,2.03 C2.38252476,2.02202489 2.38536921,2.01340951 2.392,2.00846154 L3.02222222,1.50589744 Z" id="Shape" fill="#FFFFFF"></path>
                        <rect id="Rectangle-path" fill-opacity="0" fill="#000000" x="0" y="0" width="3.2" height="3.23076923"></rect>
                    </g>
                    <g id="star-solid" transform="translate(8.800000, 5.250000)" fill-rule="nonzero">
                        <path d="M3.02222222,1.50589744 C3.08995593,1.45495322 3.11806581,1.36613557 3.09214136,1.28497673 C3.06621691,1.2038179 2.99200712,1.14831562 2.90755556,1.14692308 L2.10755556,1.11641026 C2.09952063,1.11585023 2.09256006,1.11057961 2.08977778,1.10294872 L1.81333333,0.349102564 C1.78488181,0.270540278 1.7108524,0.218287672 1.628,0.218287672 C1.5451476,0.218287672 1.47111819,0.270540278 1.44266667,0.349102564 L1.16711111,1.10564103 C1.16432882,1.11327192 1.15736826,1.11854254 1.14933333,1.11910256 L0.349333333,1.14961538 C0.264881769,1.15100793 0.190671983,1.2065102 0.164747532,1.28766904 C0.138823081,1.36882787 0.166932957,1.45764553 0.234666667,1.50858974 L0.862222222,2.00666667 C0.868641771,2.01176705 0.871437885,2.02023605 0.869333333,2.02820513 L0.653333333,2.80089744 C0.630402581,2.88150677 0.659928038,2.96798326 0.727186521,3.01720449 C0.794445004,3.06642571 0.885032975,3.06785085 0.953777778,3.02076923 L1.61688889,2.57205128 C1.62357666,2.56738924 1.63242334,2.56738924 1.63911111,2.57205128 L2.30222222,3.02076923 C2.37007377,3.0694859 2.46103734,3.0694859 2.52888889,3.02076923 C2.59618372,2.97199757 2.62574084,2.88570939 2.60266667,2.80538462 L2.38488889,2.03 C2.38252476,2.02202489 2.38536921,2.01340951 2.392,2.00846154 L3.02222222,1.50589744 Z" id="Shape" fill="#FFFFFF"></path>
                        <rect id="Rectangle-path" fill-opacity="0" fill="#000000" x="0" y="0" width="3.2" height="3.23076923"></rect>
                    </g>
                    <rect id="Rectangle-4" fill="#EC4964" x="12.8" y="0" width="19.2" height="1.61538462"></rect>
                    <rect id="Rectangle-4" fill="#EC4964" x="12.8" y="3.23076923" width="19.2" height="1.61538462"></rect>
                    <rect id="Rectangle-4" fill="#EC4964" x="12.8" y="6.46153846" width="19.2" height="1.61538462"></rect>
                    <rect id="Rectangle-4" fill="#EC4964" x="0" y="9.69230769" width="32" height="1.61538462"></rect>
                    <rect id="Rectangle-4" fill="#EC4964" x="0" y="12.9230769" width="32" height="1.61538462"></rect>
                    <rect id="Rectangle-4" fill="#EC4964" x="0" y="16.1538462" width="32" height="1.61538462"></rect>
                    <rect id="Rectangle-4" fill="#EC4964" x="0" y="19.3846154" width="32" height="1.61538462"></rect>
                </g>
            </g>
        </g>
    </g>
</svg>