<?xml version="1.0" encoding="UTF-8"?>
<svg width="135px" height="65px" viewBox="0 0 135 65" version="1.1" xmlns="http://www.w3.org/2000/svg" xmlns:xlink="http://www.w3.org/1999/xlink">
    <!-- Generator: Sketch 49.1 (51147) - http://www.bohemiancoding.com/sketch -->
    <title>logo</title>
    <desc>Created with Sketch.</desc>
    <defs></defs>
    <g id="Symbols" stroke="none" stroke-width="1" fill="none" fill-rule="evenodd">
        <g id="navbar" transform="translate(-138.000000, -32.000000)">
            <g id="logo">
                <g transform="translate(138.000000, 28.000000)">
                    <g id="logo-icon" transform="translate(8.000000, 12.000000) scale(-1, 1) rotate(-360.000000) translate(-8.000000, -12.000000) translate(0.000000, 4.000000)">
                        <polygon id="Shape" points="0 0 16 0 16 16 0 16"></polygon>
                        <path d="M15.7953372,13.2370526 L9.55312278,6.99483817 C10.1671111,5.42575694 9.82600647,3.54968156 8.5639194,2.28759448 C7.19950094,0.923176022 5.15287325,0.650292331 3.5155711,1.43483294 L6.48318124,4.40244309 L4.40244309,6.48318124 L1.43483294,3.5155711 C0.650292331,5.15287325 0.923176022,7.19950094 2.28759448,8.5639194 C3.54968156,9.82600647 5.42575694,10.1671111 6.99483817,9.55312278 L13.2370526,15.7953372 C13.5099363,16.0682209 13.9533723,16.0682209 14.1921455,15.7953372 L15.7953372,14.1921455 C16.0682209,13.9533723 16.0682209,13.5099363 15.7953372,13.2370526 Z" id="Shape" fill="#4EA1D3" fill-rule="nonzero"></path>
                    </g>
                    <g id="logo-type" transform="translate(20.000000, 0.000000)">
                        <path d="M1.817,28.475 L8.05,28.475 C9.499,28.475 10.557,29.533 10.557,30.982 L10.557,41.47 C10.557,42.942 9.499,44 8.05,44 L1.817,44 L1.817,28.475 Z M7.452,40.711 L7.452,31.764 C7.452,31.373 7.199,31.12 6.808,31.12 L4.922,31.12 L4.922,41.355 L6.808,41.355 C7.199,41.355 7.452,41.079 7.452,40.711 Z M14.733,44 L14.733,28.475 L22.07,28.475 L22.07,31.12 L17.838,31.12 L17.838,34.869 L21.403,34.869 L21.403,37.468 L17.838,37.468 L17.838,41.355 L22.07,41.355 L22.07,44 L14.733,44 Z M31.191,28.475 L34.227,28.475 L30.961,44 L27.902,44 L24.659,28.475 L27.902,28.475 L29.466,39.032 L31.191,28.475 Z M37.46,44 L37.46,28.475 L44.797,28.475 L44.797,31.12 L40.565,31.12 L40.565,34.869 L44.13,34.869 L44.13,37.468 L40.565,37.468 L40.565,41.355 L44.797,41.355 L44.797,44 L37.46,44 Z M48.49,44 L48.49,28.475 L51.572,28.475 L51.572,41.309 L55.275,41.309 L55.275,44 L48.49,44 Z M59.75,28.383 L65.178,28.383 C66.167,28.383 66.857,29.073 66.857,30.062 L66.857,42.39 C66.857,43.379 66.167,44.069 65.178,44.069 L59.75,44.069 C58.738,44.069 58.071,43.379 58.071,42.39 L58.071,30.062 C58.071,29.073 58.738,28.383 59.75,28.383 Z M63.752,41.217 L63.752,31.235 C63.752,31.097 63.637,30.982 63.568,30.982 L61.337,30.982 C61.222,30.982 61.176,31.143 61.176,31.235 L61.176,41.217 C61.176,41.309 61.245,41.424 61.337,41.424 L63.568,41.424 C63.637,41.424 63.752,41.332 63.752,41.217 Z M71.033,28.475 L77.818,28.475 C78.899,28.475 79.681,29.234 79.681,30.315 L79.681,37.951 C79.681,39.032 78.899,39.791 77.818,39.791 L74.161,39.791 L74.161,44 L71.033,44 L71.033,28.475 Z M74.161,37.215 L76.369,37.215 C76.461,37.215 76.553,37.1 76.553,37.008 L76.553,31.35 C76.553,31.235 76.461,31.12 76.369,31.12 L74.161,31.12 L74.161,37.215 Z M83.443,44 L83.443,28.475 L90.78,28.475 L90.78,31.12 L86.548,31.12 L86.548,34.869 L90.113,34.869 L90.113,37.468 L86.548,37.468 L86.548,41.355 L90.78,41.355 L90.78,44 L83.443,44 Z M94.473,28.475 L101.35,28.475 C102.431,28.475 103.167,29.234 103.167,30.315 L103.167,37.077 C103.167,38.02 102.615,38.71 101.764,38.871 L103.213,44 L100.154,44 L98.751,38.917 L97.578,38.917 L97.578,44 L94.473,44 L94.473,28.475 Z M100.108,36.203 L100.108,31.35 C100.108,31.235 100.016,31.12 99.924,31.12 L97.578,31.12 L97.578,36.41 L99.924,36.41 C100.016,36.41 100.108,36.295 100.108,36.203 Z M106.653,44 L106.653,41.286 L110.701,41.286 C110.839,41.286 110.908,41.194 110.908,41.079 L110.908,37.813 C110.908,37.698 110.839,37.606 110.701,37.606 L108.309,37.606 C107.343,37.606 106.653,36.893 106.653,35.927 L106.653,30.154 C106.653,29.165 107.343,28.475 108.309,28.475 L113.829,28.475 L113.829,31.12 L109.942,31.12 C109.827,31.12 109.735,31.235 109.735,31.373 L109.735,34.593 C109.735,34.685 109.827,34.8 109.942,34.8 L112.334,34.8 C113.3,34.8 114.013,35.49 114.013,36.479 L114.013,42.321 C114.013,43.31 113.3,44 112.334,44 L106.653,44 Z M1.679,58.156 L1.679,54.292 C1.679,53.211 2.415,52.475 3.496,52.475 L8.579,52.475 C9.66,52.475 10.396,53.211 10.396,54.292 L10.396,57.144 L7.337,57.144 L7.337,55.396 C7.337,55.166 7.222,55.051 6.992,55.051 L5.06,55.051 C4.853,55.051 4.715,55.166 4.715,55.396 L4.715,58.777 C4.715,59.007 4.853,59.122 5.06,59.122 L11.937,59.122 L11.937,61.468 L10.511,61.468 L10.511,66.183 C10.511,67.264 9.775,68 8.694,68 L3.496,68 C2.415,68 1.679,67.264 1.679,66.183 L1.679,62.641 C1.679,61.399 2.461,60.41 3.726,60.364 C2.461,60.318 1.679,59.375 1.679,58.156 Z M4.715,61.813 L4.715,65.079 C4.715,65.286 4.853,65.424 5.06,65.424 L7.107,65.424 C7.337,65.424 7.452,65.286 7.452,65.079 L7.452,61.468 L5.06,61.468 C4.853,61.468 4.715,61.606 4.715,61.813 Z M19.061,52.475 L25.294,52.475 C26.743,52.475 27.801,53.533 27.801,54.982 L27.801,65.47 C27.801,66.942 26.743,68 25.294,68 L19.061,68 L19.061,52.475 Z M24.696,64.711 L24.696,55.764 C24.696,55.373 24.443,55.12 24.052,55.12 L22.166,55.12 L22.166,65.355 L24.052,65.355 C24.443,65.355 24.696,65.079 24.696,64.711 Z M31.547,68 L31.547,52.475 L38.884,52.475 L38.884,55.12 L34.652,55.12 L34.652,58.869 L38.217,58.869 L38.217,61.468 L34.652,61.468 L34.652,65.355 L38.884,65.355 L38.884,68 L31.547,68 Z M41.641,68 L41.641,65.286 L45.689,65.286 C45.827,65.286 45.896,65.194 45.896,65.079 L45.896,61.813 C45.896,61.698 45.827,61.606 45.689,61.606 L43.297,61.606 C42.331,61.606 41.641,60.893 41.641,59.927 L41.641,54.154 C41.641,53.165 42.331,52.475 43.297,52.475 L48.817,52.475 L48.817,55.12 L44.93,55.12 C44.815,55.12 44.723,55.235 44.723,55.373 L44.723,58.593 C44.723,58.685 44.815,58.8 44.93,58.8 L47.322,58.8 C48.288,58.8 49.001,59.49 49.001,60.479 L49.001,66.321 C49.001,67.31 48.288,68 47.322,68 L41.641,68 Z M55.3,52.475 L55.3,68 L52.287,68 L52.287,52.475 L55.3,52.475 Z M63.37,61.1 L63.37,58.501 L68.453,58.501 L68.453,61.1 L67.51,61.1 L67.51,66.229 C67.51,67.31 66.751,68.069 65.647,68.069 L60.886,68.069 C59.782,68.069 59.046,67.31 59.046,66.229 L59.046,54.246 C59.046,53.142 59.782,52.383 60.886,52.383 L67.533,52.383 L67.533,55.143 L62.335,55.143 C62.243,55.143 62.151,55.258 62.151,55.396 L62.151,65.079 C62.151,65.217 62.243,65.309 62.335,65.309 L64.474,65.309 C64.612,65.309 64.681,65.217 64.681,65.079 L64.681,61.1 L63.37,61.1 Z M77.788,68 L74.246,59.398 L74.246,68 L71.509,68 L71.509,52.475 L74.223,52.475 L77.788,61.445 L77.788,52.475 L80.525,52.475 L80.525,68 L77.788,68 Z M84.409,68 L84.409,52.475 L91.746,52.475 L91.746,55.12 L87.514,55.12 L87.514,58.869 L91.079,58.869 L91.079,61.468 L87.514,61.468 L87.514,65.355 L91.746,65.355 L91.746,68 L84.409,68 Z M95.009,52.475 L101.886,52.475 C102.967,52.475 103.703,53.234 103.703,54.315 L103.703,61.077 C103.703,62.02 103.151,62.71 102.3,62.871 L103.749,68 L100.69,68 L99.287,62.917 L98.114,62.917 L98.114,68 L95.009,68 L95.009,52.475 Z M100.644,60.203 L100.644,55.35 C100.644,55.235 100.552,55.12 100.46,55.12 L98.114,55.12 L98.114,60.41 L100.46,60.41 C100.552,60.41 100.644,60.295 100.644,60.203 Z M106.759,68 L106.759,65.286 L110.807,65.286 C110.945,65.286 111.014,65.194 111.014,65.079 L111.014,61.813 C111.014,61.698 110.945,61.606 110.807,61.606 L108.415,61.606 C107.449,61.606 106.759,60.893 106.759,59.927 L106.759,54.154 C106.759,53.165 107.449,52.475 108.415,52.475 L113.935,52.475 L113.935,55.12 L110.048,55.12 C109.933,55.12 109.841,55.235 109.841,55.373 L109.841,58.593 C109.841,58.685 109.933,58.8 110.048,58.8 L112.44,58.8 C113.406,58.8 114.119,59.49 114.119,60.479 L114.119,66.321 C114.119,67.31 113.406,68 112.44,68 L106.759,68 Z" id="developers-&amp;-designers" fill="#333333"></path>
                        <path d="M1.817,4.475 L8.05,4.475 C9.499,4.475 10.557,5.533 10.557,6.982 L10.557,17.47 C10.557,18.942 9.499,20 8.05,20 L1.817,20 L1.817,4.475 Z M7.452,16.711 L7.452,7.764 C7.452,7.373 7.199,7.12 6.808,7.12 L4.922,7.12 L4.922,17.355 L6.808,17.355 C7.199,17.355 7.452,17.079 7.452,16.711 Z M14.403,20 L14.403,4.475 L21.74,4.475 L21.74,7.12 L17.508,7.12 L17.508,10.869 L21.073,10.869 L21.073,13.468 L17.508,13.468 L17.508,17.355 L21.74,17.355 L21.74,20 L14.403,20 Z M29.91,16.32 L27.932,11.007 L27.932,20 L25.103,20 L25.103,4.475 L28.024,4.475 L30.531,11.812 L32.923,4.475 L35.982,4.475 L35.982,20 L33.038,20 L33.038,10.938 L31.06,16.32 L29.91,16.32 Z M41.507,4.383 L46.935,4.383 C47.924,4.383 48.614,5.073 48.614,6.062 L48.614,18.39 C48.614,19.379 47.924,20.069 46.935,20.069 L41.507,20.069 C40.495,20.069 39.828,19.379 39.828,18.39 L39.828,6.062 C39.828,5.073 40.495,4.383 41.507,4.383 Z M45.509,17.217 L45.509,7.235 C45.509,7.097 45.394,6.982 45.325,6.982 L43.094,6.982 C42.979,6.982 42.933,7.143 42.933,7.235 L42.933,17.217 C42.933,17.309 43.002,17.424 43.094,17.424 L45.325,17.424 C45.394,17.424 45.509,17.332 45.509,17.217 Z M57.773,14.204 L60.878,14.204 L60.878,18.252 C60.878,19.333 60.119,20.092 59.038,20.092 L54.139,20.092 C53.081,20.092 52.322,19.333 52.322,18.252 L52.322,6.246 C52.322,5.142 53.081,4.383 54.139,4.383 L59.038,4.383 C60.119,4.383 60.878,5.142 60.878,6.246 L60.878,10.225 L57.773,10.225 L57.773,7.281 C57.773,7.143 57.681,7.028 57.612,7.028 L55.634,7.028 C55.519,7.028 55.427,7.143 55.427,7.281 L55.427,17.194 C55.427,17.332 55.519,17.424 55.634,17.424 L57.566,17.424 C57.681,17.424 57.773,17.332 57.773,17.194 L57.773,14.204 Z M64.195,4.475 L71.072,4.475 C72.153,4.475 72.889,5.234 72.889,6.315 L72.889,13.077 C72.889,14.02 72.337,14.71 71.486,14.871 L72.935,20 L69.876,20 L68.473,14.917 L67.3,14.917 L67.3,20 L64.195,20 L64.195,4.475 Z M69.83,12.203 L69.83,7.35 C69.83,7.235 69.738,7.12 69.646,7.12 L67.3,7.12 L67.3,12.41 L69.646,12.41 C69.738,12.41 69.83,12.295 69.83,12.203 Z M85.038,6.154 L85.038,20 L81.956,20 L81.956,15.722 L79.495,15.722 L79.495,20 L76.413,20 L76.413,6.154 C76.413,5.165 77.08,4.475 78.069,4.475 L83.359,4.475 C84.348,4.475 85.038,5.165 85.038,6.154 Z M79.495,13.146 L81.956,13.146 L81.956,7.442 C81.956,7.212 81.772,7.074 81.542,7.074 L79.886,7.074 C79.656,7.074 79.495,7.235 79.495,7.442 L79.495,13.146 Z M87.573,4.475 L95.738,4.475 L95.738,7.12 L93.208,7.12 L93.208,20 L90.103,20 L90.103,7.12 L87.573,7.12 L87.573,4.475 Z M101.424,4.475 L101.424,20 L98.411,20 L98.411,4.475 L101.424,4.475 Z M110.721,14.204 L113.826,14.204 L113.826,18.252 C113.826,19.333 113.067,20.092 111.986,20.092 L107.087,20.092 C106.029,20.092 105.27,19.333 105.27,18.252 L105.27,6.246 C105.27,5.142 106.029,4.383 107.087,4.383 L111.986,4.383 C113.067,4.383 113.826,5.142 113.826,6.246 L113.826,10.225 L110.721,10.225 L110.721,7.281 C110.721,7.143 110.629,7.028 110.56,7.028 L108.582,7.028 C108.467,7.028 108.375,7.143 108.375,7.281 L108.375,17.194 C108.375,17.332 108.467,17.424 108.582,17.424 L110.514,17.424 C110.629,17.424 110.721,17.332 110.721,17.194 L110.721,14.204 Z" id="democratic" fill="#4EA1D3"></path>
                    </g>
                </g>
            </g>
        </g>
    </g>
</svg>