<?xml version="1.0" encoding="UTF-8"?>
<svg width="138px" height="65px" viewBox="0 0 138 65" version="1.1" xmlns="http://www.w3.org/2000/svg" xmlns:xlink="http://www.w3.org/1999/xlink">
    <!-- Generator: Sketch 49.3 (51167) - http://www.bohemiancoding.com/sketch -->
    <title>logo</title>
    <desc>Created with Sketch.</desc>
    <defs></defs>
    <g id="Symbols" stroke="none" stroke-width="1" fill="none" fill-rule="evenodd">
        <g id="navbar" transform="translate(-138.000000, -32.000000)">
            <g id="logo">
                <g transform="translate(138.000000, 32.000000)">
                    <g id="logo-icon" transform="translate(8.000000, 8.000000) scale(-1, 1) rotate(-360.000000) translate(-8.000000, -8.000000) ">
                        <polygon id="Shape" points="0 0 16 0 16 16 0 16"></polygon>
                        <path d="M15.7953372,13.2370526 L9.55312278,6.99483817 C10.1671111,5.42575694 9.82600647,3.54968156 8.5639194,2.28759448 C7.19950094,0.923176022 5.15287325,0.650292331 3.5155711,1.43483294 L6.48318124,4.40244309 L4.40244309,6.48318124 L1.43483294,3.5155711 C0.650292331,5.15287325 0.923176022,7.19950094 2.28759448,8.5639194 C3.54968156,9.82600647 5.42575694,10.1671111 6.99483817,9.55312278 L13.2370526,15.7953372 C13.5099363,16.0682209 13.9533723,16.0682209 14.1921455,15.7953372 L15.7953372,14.1921455 C16.0682209,13.9533723 16.0682209,13.5099363 15.7953372,13.2370526 Z" id="Shape" fill="#4EA1D3" fill-rule="nonzero"></path>
                    </g>
                    <path d="M23.817,24.475 L30.05,24.475 C31.499,24.475 32.557,25.533 32.557,26.982 L32.557,37.47 C32.557,38.942 31.499,40 30.05,40 L23.817,40 L23.817,24.475 Z M29.452,36.711 L29.452,27.764 C29.452,27.373 29.199,27.12 28.808,27.12 L26.922,27.12 L26.922,37.355 L28.808,37.355 C29.199,37.355 29.452,37.079 29.452,36.711 Z M36.233,40 L36.233,24.475 L43.57,24.475 L43.57,27.12 L39.338,27.12 L39.338,30.869 L42.903,30.869 L42.903,33.468 L39.338,33.468 L39.338,37.355 L43.57,37.355 L43.57,40 L36.233,40 Z M46.257,40 L46.257,37.286 L50.305,37.286 C50.443,37.286 50.512,37.194 50.512,37.079 L50.512,33.813 C50.512,33.698 50.443,33.606 50.305,33.606 L47.913,33.606 C46.947,33.606 46.257,32.893 46.257,31.927 L46.257,26.154 C46.257,25.165 46.947,24.475 47.913,24.475 L53.433,24.475 L53.433,27.12 L49.546,27.12 C49.431,27.12 49.339,27.235 49.339,27.373 L49.339,30.593 C49.339,30.685 49.431,30.8 49.546,30.8 L51.938,30.8 C52.904,30.8 53.617,31.49 53.617,32.479 L53.617,38.321 C53.617,39.31 52.904,40 51.938,40 L46.257,40 Z M59.846,24.475 L59.846,40 L56.833,40 L56.833,24.475 L59.846,24.475 Z M67.846,33.1 L67.846,30.501 L72.929,30.501 L72.929,33.1 L71.986,33.1 L71.986,38.229 C71.986,39.31 71.227,40.069 70.123,40.069 L65.362,40.069 C64.258,40.069 63.522,39.31 63.522,38.229 L63.522,26.246 C63.522,25.142 64.258,24.383 65.362,24.383 L72.009,24.383 L72.009,27.143 L66.811,27.143 C66.719,27.143 66.627,27.258 66.627,27.396 L66.627,37.079 C66.627,37.217 66.719,37.309 66.811,37.309 L68.95,37.309 C69.088,37.309 69.157,37.217 69.157,37.079 L69.157,33.1 L67.846,33.1 Z M82.194,40 L78.652,31.398 L78.652,40 L75.915,40 L75.915,24.475 L78.629,24.475 L82.194,33.445 L82.194,24.475 L84.931,24.475 L84.931,40 L82.194,40 Z M88.745,40 L88.745,24.475 L96.082,24.475 L96.082,27.12 L91.85,27.12 L91.85,30.869 L95.415,30.869 L95.415,33.468 L91.85,33.468 L91.85,37.355 L96.082,37.355 L96.082,40 L88.745,40 Z M99.275,24.475 L106.152,24.475 C107.233,24.475 107.969,25.234 107.969,26.315 L107.969,33.077 C107.969,34.02 107.417,34.71 106.566,34.871 L108.015,40 L104.956,40 L103.553,34.917 L102.38,34.917 L102.38,40 L99.275,40 L99.275,24.475 Z M104.91,32.203 L104.91,27.35 C104.91,27.235 104.818,27.12 104.726,27.12 L102.38,27.12 L102.38,32.41 L104.726,32.41 C104.818,32.41 104.91,32.295 104.91,32.203 Z M110.955,40 L110.955,37.286 L115.003,37.286 C115.141,37.286 115.21,37.194 115.21,37.079 L115.21,33.813 C115.21,33.698 115.141,33.606 115.003,33.606 L112.611,33.606 C111.645,33.606 110.955,32.893 110.955,31.927 L110.955,26.154 C110.955,25.165 111.645,24.475 112.611,24.475 L118.131,24.475 L118.131,27.12 L114.244,27.12 C114.129,27.12 114.037,27.235 114.037,27.373 L114.037,30.593 C114.037,30.685 114.129,30.8 114.244,30.8 L116.636,30.8 C117.602,30.8 118.315,31.49 118.315,32.479 L118.315,38.321 C118.315,39.31 117.602,40 116.636,40 L110.955,40 Z M126.774,30.156 L126.774,26.292 C126.774,25.211 127.51,24.475 128.591,24.475 L133.674,24.475 C134.755,24.475 135.491,25.211 135.491,26.292 L135.491,29.144 L132.432,29.144 L132.432,27.396 C132.432,27.166 132.317,27.051 132.087,27.051 L130.155,27.051 C129.948,27.051 129.81,27.166 129.81,27.396 L129.81,30.777 C129.81,31.007 129.948,31.122 130.155,31.122 L137.032,31.122 L137.032,33.468 L135.606,33.468 L135.606,38.183 C135.606,39.264 134.87,40 133.789,40 L128.591,40 C127.51,40 126.774,39.264 126.774,38.183 L126.774,34.641 C126.774,33.399 127.556,32.41 128.821,32.364 C127.556,32.318 126.774,31.375 126.774,30.156 Z M129.81,33.813 L129.81,37.079 C129.81,37.286 129.948,37.424 130.155,37.424 L132.202,37.424 C132.432,37.424 132.547,37.286 132.547,37.079 L132.547,33.468 L130.155,33.468 C129.948,33.468 129.81,33.606 129.81,33.813 Z M23.817,48.475 L30.05,48.475 C31.499,48.475 32.557,49.533 32.557,50.982 L32.557,61.47 C32.557,62.942 31.499,64 30.05,64 L23.817,64 L23.817,48.475 Z M29.452,60.711 L29.452,51.764 C29.452,51.373 29.199,51.12 28.808,51.12 L26.922,51.12 L26.922,61.355 L28.808,61.355 C29.199,61.355 29.452,61.079 29.452,60.711 Z M36.723,64 L36.723,48.475 L44.06,48.475 L44.06,51.12 L39.828,51.12 L39.828,54.869 L43.393,54.869 L43.393,57.468 L39.828,57.468 L39.828,61.355 L44.06,61.355 L44.06,64 L36.723,64 Z M53.171,48.475 L56.207,48.475 L52.941,64 L49.882,64 L46.639,48.475 L49.882,48.475 L51.446,59.032 L53.171,48.475 Z M59.43,64 L59.43,48.475 L66.767,48.475 L66.767,51.12 L62.535,51.12 L62.535,54.869 L66.1,54.869 L66.1,57.468 L62.535,57.468 L62.535,61.355 L66.767,61.355 L66.767,64 L59.43,64 Z M70.45,64 L70.45,48.475 L73.532,48.475 L73.532,61.309 L77.235,61.309 L77.235,64 L70.45,64 Z M81.7,48.383 L87.128,48.383 C88.117,48.383 88.807,49.073 88.807,50.062 L88.807,62.39 C88.807,63.379 88.117,64.069 87.128,64.069 L81.7,64.069 C80.688,64.069 80.021,63.379 80.021,62.39 L80.021,50.062 C80.021,49.073 80.688,48.383 81.7,48.383 Z M85.702,61.217 L85.702,51.235 C85.702,51.097 85.587,50.982 85.518,50.982 L83.287,50.982 C83.172,50.982 83.126,51.143 83.126,51.235 L83.126,61.217 C83.126,61.309 83.195,61.424 83.287,61.424 L85.518,61.424 C85.587,61.424 85.702,61.332 85.702,61.217 Z M92.973,48.475 L99.758,48.475 C100.839,48.475 101.621,49.234 101.621,50.315 L101.621,57.951 C101.621,59.032 100.839,59.791 99.758,59.791 L96.101,59.791 L96.101,64 L92.973,64 L92.973,48.475 Z M96.101,57.215 L98.309,57.215 C98.401,57.215 98.493,57.1 98.493,57.008 L98.493,51.35 C98.493,51.235 98.401,51.12 98.309,51.12 L96.101,51.12 L96.101,57.215 Z M105.373,64 L105.373,48.475 L112.71,48.475 L112.71,51.12 L108.478,51.12 L108.478,54.869 L112.043,54.869 L112.043,57.468 L108.478,57.468 L108.478,61.355 L112.71,61.355 L112.71,64 L105.373,64 Z M116.393,48.475 L123.27,48.475 C124.351,48.475 125.087,49.234 125.087,50.315 L125.087,57.077 C125.087,58.02 124.535,58.71 123.684,58.871 L125.133,64 L122.074,64 L120.671,58.917 L119.498,58.917 L119.498,64 L116.393,64 L116.393,48.475 Z M122.028,56.203 L122.028,51.35 C122.028,51.235 121.936,51.12 121.844,51.12 L119.498,51.12 L119.498,56.41 L121.844,56.41 C121.936,56.41 122.028,56.295 122.028,56.203 Z M128.563,64 L128.563,61.286 L132.611,61.286 C132.749,61.286 132.818,61.194 132.818,61.079 L132.818,57.813 C132.818,57.698 132.749,57.606 132.611,57.606 L130.219,57.606 C129.253,57.606 128.563,56.893 128.563,55.927 L128.563,50.154 C128.563,49.165 129.253,48.475 130.219,48.475 L135.739,48.475 L135.739,51.12 L131.852,51.12 C131.737,51.12 131.645,51.235 131.645,51.373 L131.645,54.593 C131.645,54.685 131.737,54.8 131.852,54.8 L134.244,54.8 C135.21,54.8 135.923,55.49 135.923,56.479 L135.923,62.321 C135.923,63.31 135.21,64 134.244,64 L128.563,64 Z" id="Designers-&amp;-develope" fill="#333333"></path>
                    <path d="M23.817,0.475 L30.05,0.475 C31.499,0.475 32.557,1.533 32.557,2.982 L32.557,13.47 C32.557,14.942 31.499,16 30.05,16 L23.817,16 L23.817,0.475 Z M29.452,12.711 L29.452,3.764 C29.452,3.373 29.199,3.12 28.808,3.12 L26.922,3.12 L26.922,13.355 L28.808,13.355 C29.199,13.355 29.452,13.079 29.452,12.711 Z M36.403,16 L36.403,0.475 L43.74,0.475 L43.74,3.12 L39.508,3.12 L39.508,6.869 L43.073,6.869 L43.073,9.468 L39.508,9.468 L39.508,13.355 L43.74,13.355 L43.74,16 L36.403,16 Z M51.91,12.32 L49.932,7.007 L49.932,16 L47.103,16 L47.103,0.475 L50.024,0.475 L52.531,7.812 L54.923,0.475 L57.982,0.475 L57.982,16 L55.038,16 L55.038,6.938 L53.06,12.32 L51.91,12.32 Z M63.507,0.383 L68.935,0.383 C69.924,0.383 70.614,1.073 70.614,2.062 L70.614,14.39 C70.614,15.379 69.924,16.069 68.935,16.069 L63.507,16.069 C62.495,16.069 61.828,15.379 61.828,14.39 L61.828,2.062 C61.828,1.073 62.495,0.383 63.507,0.383 Z M67.509,13.217 L67.509,3.235 C67.509,3.097 67.394,2.982 67.325,2.982 L65.094,2.982 C64.979,2.982 64.933,3.143 64.933,3.235 L64.933,13.217 C64.933,13.309 65.002,13.424 65.094,13.424 L67.325,13.424 C67.394,13.424 67.509,13.332 67.509,13.217 Z M79.773,10.204 L82.878,10.204 L82.878,14.252 C82.878,15.333 82.119,16.092 81.038,16.092 L76.139,16.092 C75.081,16.092 74.322,15.333 74.322,14.252 L74.322,2.246 C74.322,1.142 75.081,0.383 76.139,0.383 L81.038,0.383 C82.119,0.383 82.878,1.142 82.878,2.246 L82.878,6.225 L79.773,6.225 L79.773,3.281 C79.773,3.143 79.681,3.028 79.612,3.028 L77.634,3.028 C77.519,3.028 77.427,3.143 77.427,3.281 L77.427,13.194 C77.427,13.332 77.519,13.424 77.634,13.424 L79.566,13.424 C79.681,13.424 79.773,13.332 79.773,13.194 L79.773,10.204 Z M86.195,0.475 L93.072,0.475 C94.153,0.475 94.889,1.234 94.889,2.315 L94.889,9.077 C94.889,10.02 94.337,10.71 93.486,10.871 L94.935,16 L91.876,16 L90.473,10.917 L89.3,10.917 L89.3,16 L86.195,16 L86.195,0.475 Z M91.83,8.203 L91.83,3.35 C91.83,3.235 91.738,3.12 91.646,3.12 L89.3,3.12 L89.3,8.41 L91.646,8.41 C91.738,8.41 91.83,8.295 91.83,8.203 Z M107.038,2.154 L107.038,16 L103.956,16 L103.956,11.722 L101.495,11.722 L101.495,16 L98.413,16 L98.413,2.154 C98.413,1.165 99.08,0.475 100.069,0.475 L105.359,0.475 C106.348,0.475 107.038,1.165 107.038,2.154 Z M101.495,9.146 L103.956,9.146 L103.956,3.442 C103.956,3.212 103.772,3.074 103.542,3.074 L101.886,3.074 C101.656,3.074 101.495,3.235 101.495,3.442 L101.495,9.146 Z M109.573,0.475 L117.738,0.475 L117.738,3.12 L115.208,3.12 L115.208,16 L112.103,16 L112.103,3.12 L109.573,3.12 L109.573,0.475 Z M123.424,0.475 L123.424,16 L120.411,16 L120.411,0.475 L123.424,0.475 Z M132.721,10.204 L135.826,10.204 L135.826,14.252 C135.826,15.333 135.067,16.092 133.986,16.092 L129.087,16.092 C128.029,16.092 127.27,15.333 127.27,14.252 L127.27,2.246 C127.27,1.142 128.029,0.383 129.087,0.383 L133.986,0.383 C135.067,0.383 135.826,1.142 135.826,2.246 L135.826,6.225 L132.721,6.225 L132.721,3.281 C132.721,3.143 132.629,3.028 132.56,3.028 L130.582,3.028 C130.467,3.028 130.375,3.143 130.375,3.281 L130.375,13.194 C130.375,13.332 130.467,13.424 130.582,13.424 L132.514,13.424 C132.629,13.424 132.721,13.332 132.721,13.194 L132.721,10.204 Z" id="Democratic" fill="#4EA1D3"></path>
                </g>
            </g>
        </g>
    </g>
</svg>