<?xml version="1.0" standalone="no"?>
<!DOCTYPE svg PUBLIC "-//W3C//DTD SVG 20010904//EN"
 "http://www.w3.org/TR/2001/REC-SVG-20010904/DTD/svg10.dtd">
<svg version="1.0" xmlns="http://www.w3.org/2000/svg"
 width="1024.000000pt" height="1024.000000pt" viewBox="0 0 1024.000000 1024.000000"
 preserveAspectRatio="xMidYMid meet">
<metadata>
Created by potrace 1.11, written by Peter Selinger 2001-2013
</metadata>
<g transform="translate(0.000000,1024.000000) scale(0.100000,-0.100000)"
fill="#000000" stroke="none">
<path d="M6105 8104 c-195 -29 -371 -83 -541 -165 -92 -44 -249 -142 -313
-194 -285 -232 -487 -528 -589 -861 -61 -200 -81 -341 -77 -554 4 -212 21
-322 79 -505 l33 -103 -1258 -1258 c-926 -926 -1265 -1271 -1285 -1308 -37
-67 -42 -161 -13 -226 15 -34 109 -134 377 -403 196 -197 375 -368 397 -380
60 -33 172 -30 240 5 38 20 358 334 1309 1286 l1258 1259 92 -29 c79 -26 183
-51 306 -73 87 -16 375 -13 490 5 391 61 720 224 989 492 282 280 455 633 508
1033 10 76 10 362 0 435 -23 177 -86 400 -144 514 l-19 37 -593 -592 -592
-593 -416 416 -417 417 593 592 592 593 -38 20 c-104 53 -323 118 -448 132
-27 3 -54 9 -60 12 -20 12 -371 9 -460 -4z"/>
</g>
</svg>
